<?xml version="1.0" encoding="utf-8"?>
<svg xmlns="http://www.w3.org/2000/svg" viewBox="0 0 496.101 118.85" xmlns:bx="https://boxy-svg.com" width="496.101px" height="118.85px"><defs><bx:export><bx:file format="svg"/></bx:export></defs><g id="Layer_1" transform="matrix(1, 0, 0, 1, -165.841843, -186.090866)"><g transform="matrix(0.847457, 0, 0, 0.847457, 108.858665, 60.382816)"><g><g><path class="st0" d="M214.98,183.66c0-1,0.8-1.9,1.9-1.9h28.6c12,0,21.8,9.6,21.8,21.5c0,9.2-6.1,16.7-14.8,20.2l13.7,25.4 c0.7,1.3,0,2.9-1.7,2.9h-10.5c-0.9,0-1.4-0.5-1.6-0.9l-13.3-26.5h-11.1v25.5c0,1-0.9,1.9-1.9,1.9h-9.2c-1.1,0-1.9-0.9-1.9-1.9 V183.66z M244.38,213.66c5.3,0,9.9-4.6,9.9-10.2c0-5.3-4.6-9.7-9.9-9.7h-16.3v19.9H244.38z" style="fill: rgb(55, 58, 54);"/><path class="st0" d="M285.48,183.66c0-1,0.8-1.9,1.9-1.9h40.7c1.1,0,1.9,0.9,1.9,1.9v8.2c0,1-0.8,1.9-1.9,1.9h-29.6v16.4h24.7 c1,0,1.9,0.9,1.9,1.9v8.3c0,1.1-0.9,1.9-1.9,1.9h-24.7v17.5h29.6c1.1,0,1.9,0.9,1.9,1.9v8.2c0,1-0.8,1.9-1.9,1.9h-40.7 c-1.1,0-1.9-0.9-1.9-1.9V183.66z" style="fill: rgb(55, 58, 54);"/><path class="st0" d="M345.28,249.16l31.1-67.3c0.3-0.6,0.8-1.1,1.7-1.1h1c1,0,1.4,0.5,1.7,1.1l30.8,67.3c0.6,1.3-0.2,2.6-1.7,2.6 h-8.7c-1.5,0-2.2-0.6-2.9-2l-4.9-10.8h-29.9l-4.9,10.8c-0.4,1-1.3,2-2.9,2h-8.7C345.48,251.76,344.68,250.46,345.28,249.16z M388.48,227.86l-10-22h-0.3l-9.8,22H388.48z" style="fill: rgb(55, 58, 54);"/><path class="st0" d="M428.18,184.16c0-1.3,1-2.4,2.4-2.4h8.8c1.3,0,2.4,1.1,2.4,2.4v27l25.2-28.4c0.4-0.5,1-1,1.9-1h10 c1.9,0,2.9,2.1,1.6,3.6l-26.1,29.4l28,33.5c1,1.3,0.2,3.5-1.8,3.5h-10.9c-1,0-1.6-0.4-1.8-0.7l-26.1-32.2v30.5 c0,1.3-1.1,2.4-2.4,2.4h-8.8c-1.4,0-2.4-1.1-2.4-2.4V184.16z" style="fill: rgb(55, 58, 54);"/><path class="st0" d="M510.58,193.76h-15.3c-1.1,0-1.9-0.9-1.9-1.9v-8.2c0-1,0.8-1.9,1.9-1.9h43.7c1.1,0,1.9,0.9,1.9,1.9v8.2 c0,1-0.8,1.9-1.9,1.9h-15.3v56.1c0,1-0.9,1.9-1.9,1.9h-9.3c-1,0-1.9-0.9-1.9-1.9V193.76z" style="fill: rgb(55, 58, 54);"/><path class="st0" d="M558.78,183.66c0-1,0.9-1.9,1.9-1.9h9.3c1,0,1.9,0.9,1.9,1.9v66.2c0,1-0.9,1.9-1.9,1.9h-9.3 c-1,0-1.9-0.9-1.9-1.9V183.66z" style="fill: rgb(55, 58, 54);"/><path class="st0" d="M588.48,184.36c-0.6-1.3,0.2-2.6,1.7-2.6h10.2c0.9,0,1.5,0.6,1.7,1.1l19.2,43h0.7l19.2-43 c0.2-0.5,0.8-1.1,1.7-1.1h10.2c1.5,0,2.3,1.3,1.7,2.6l-31,67.3c-0.3,0.6-0.8,1.1-1.7,1.1h-1c-0.9,0-1.4-0.5-1.7-1.1 L588.48,184.36z" style="fill: rgb(55, 58, 54);"/></g></g><path class="st1" d="M114.98,235.76c19.32,0,35-15.68,35-35s-15.68-35-35-35s-35,15.68-35,35S95.66,235.76,114.98,235.76z" style="fill: rgb(250, 224, 83);"/><path class="st0" d="M131.48,262.76h-33c-1.38,0-2.5-1.12-2.5-2.5c0-1.38,1.12-2.5,2.5-2.5h33c1.38,0,2.5,1.12,2.5,2.5 C133.98,261.64,132.86,262.76,131.48,262.76z" style="fill: rgb(55, 58, 54);"/><path class="st0" d="M129.48,271.76h-29c-1.38,0-2.5-1.12-2.5-2.5c0-1.38,1.12-2.5,2.5-2.5h29c1.38,0,2.5,1.12,2.5,2.5 C131.98,270.64,130.86,271.76,129.48,271.76z" style="fill: rgb(55, 58, 54);"/><path class="st0" d="M127.48,280.76h-25c-1.38,0-2.5-1.12-2.5-2.5c0-1.38,1.12-2.5,2.5-2.5h25c1.38,0,2.5,1.12,2.5,2.5 C129.98,279.64,128.86,280.76,127.48,280.76z" style="fill: rgb(55, 58, 54);"/><path class="st0" d="M121.19,217.2c0.28-1.03,0.82-1.93,1.52-2.64l-22.58-8.15l32.31-6.73c-1.25-1.46-1.79-3.5-1.25-5.48 c0.35-1.3,1.11-2.38,2.1-3.15l-24.34-8.79c0.06,0.67,0.01,1.37-0.18,2.06c-0.28,1.03-0.82,1.93-1.52,2.64l22.58,8.15l-32.32,6.73 c0.96,1.11,1.52,2.57,1.47,4.15c-0.08,1.83-0.97,3.43-2.3,4.47l24.34,8.79C120.96,218.59,121,217.89,121.19,217.2z" style="fill: rgb(55, 58, 54);"/><path class="st0" d="M114.98,150.76c-27.61,0-50,22.39-50,50c0,19.67,11.36,36.67,27.87,44.84l2.13,8.16h40l2.13-8.16 c16.51-8.17,27.87-25.17,27.87-44.84C164.98,173.15,142.59,150.76,114.98,150.76z M133.12,237.53l-3.68,1.82l-1.04,3.97l-0.37,1.44 l-10.55-1v-12.9l7.17-6.58c-1.64-0.68-2.85-2.06-3.38-3.69l-7.99,7.32c-0.51,0.48-0.8,1.15-0.8,1.85v14l-10.55,1l-0.37-1.43 l-1.04-3.97l-3.68-1.82c-14.1-6.98-22.86-21.07-22.86-36.78c0-22.61,18.39-41,41-41s41,18.39,41,41 C155.98,216.47,147.22,230.56,133.12,237.53z" style="fill: rgb(55, 58, 54);"/><path class="st2" d="M132.77,220.32c0.87-3.21-1.05-6.48-4.23-7.35c-2.17-0.59-4.36,0.1-5.83,1.59c-0.7,0.71-1.24,1.61-1.52,2.64 c-0.19,0.69-0.23,1.39-0.17,2.07c0.04,0.45,0.12,0.9,0.26,1.33c0.53,1.63,1.74,3,3.38,3.69c0.25,0.1,0.5,0.2,0.77,0.27 C128.63,225.42,131.9,223.5,132.77,220.32z" style="fill: rgb(244, 99, 58);"/><path class="st2" d="M108.95,182.26c-0.21-2.45-1.92-4.61-4.41-5.29c-3.21-0.87-6.48,1.05-7.35,4.23 c-0.87,3.18,1.05,6.51,4.23,7.35c2.17,0.59,4.36-0.1,5.83-1.59c0.7-0.71,1.24-1.61,1.52-2.64 C108.96,183.63,109.01,182.93,108.95,182.26z" style="fill: rgb(244, 99, 58);"/><path class="st2" d="M131.19,194.2c-0.54,1.98,0,4.02,1.25,5.48c0.76,0.88,1.78,1.56,2.98,1.87c3.21,0.87,6.48-1.05,7.35-4.23 c0.87-3.18-1.05-6.48-4.23-7.35c-1.9-0.52-3.82-0.05-5.25,1.08C132.3,191.82,131.54,192.9,131.19,194.2z" style="fill: rgb(244, 99, 58);"/><path class="st2" d="M98.98,206c0.06-1.58-0.5-3.04-1.47-4.15c-1.04-1.21-2.56-2-4.29-2.08c-3.33-0.15-6.09,2.43-6.24,5.76 c-0.12,3.3,2.46,6.08,5.76,6.23c1.48,0.05,2.85-0.43,3.93-1.28C98.01,209.43,98.89,207.84,98.98,206z" style="fill: rgb(244, 99, 58);"/></g></g></svg>